<svg width="952" height="572" viewBox="0 0 952 572" fill="none" xmlns="http://www.w3.org/2000/svg">
<path d="M470.404 338.342C441.482 230.457 505.539 119.566 613.48 90.6583C721.421 61.7509 832.371 125.774 861.294 233.658C890.216 341.542 826.159 452.434 718.218 481.341C610.277 510.249 499.327 446.226 470.404 338.342ZM859.437 234.156C830.789 127.296 720.893 63.8812 613.977 92.5141C507.062 121.147 443.613 230.985 472.261 337.844C500.909 444.704 610.805 508.119 717.721 479.486C824.636 450.853 888.085 341.015 859.437 234.156Z" fill="#494949"/>
<path d="M537.621 129.562C575.464 98.5758 623.258 82.342 672.155 83.8658C721.052 85.3897 767.741 104.568 803.579 137.85C839.418 171.133 861.978 216.265 867.083 264.894C872.189 313.522 859.495 362.352 831.35 402.345C803.206 442.339 761.517 470.786 714.002 482.422C666.487 494.059 616.362 488.095 572.907 465.636C529.453 443.176 495.611 405.742 477.646 360.263C459.682 314.784 458.811 264.34 475.196 218.269L477.001 218.91C460.772 264.545 461.634 314.511 479.429 359.56C497.223 404.608 530.745 441.688 573.788 463.934C616.831 486.181 666.48 492.088 713.546 480.562C760.611 469.036 801.905 440.858 829.783 401.243C857.661 361.629 870.235 313.261 865.177 265.093C860.12 216.926 837.774 172.221 802.275 139.254C766.776 106.286 720.529 87.2897 672.095 85.7803C623.661 84.2709 576.32 100.351 538.835 131.044L537.621 129.562Z" fill="#D9D9D9"/>
<path d="M488.49 286C488.49 397.69 397.9 488.232 286.151 488.232C174.402 488.232 83.8116 397.69 83.8116 286C83.8116 174.31 174.402 83.7675 286.151 83.7675C397.9 83.7675 488.49 174.31 488.49 286ZM85.7339 286C85.7339 396.629 175.464 486.311 286.151 486.311C396.838 486.311 486.568 396.629 486.568 286C486.568 175.371 396.838 85.6887 286.151 85.6887C175.464 85.6887 85.7339 175.371 85.7339 286Z" fill="#494949"/>
<path d="M451.433 402.655C421.859 444.514 377.488 473.591 327.288 484.009C277.088 494.427 224.803 485.41 181 458.78C137.196 432.15 105.14 389.892 91.3112 340.548C77.482 291.204 82.9104 238.453 106.499 192.955C130.088 147.457 170.079 112.606 218.389 95.4451C266.699 78.284 319.726 80.0927 366.753 100.506C413.78 120.918 451.3 158.413 471.731 205.412C492.162 252.411 493.979 305.41 476.817 353.697L475.011 353.056C492.011 305.226 490.211 252.73 469.973 206.176C449.736 159.622 412.571 122.482 365.989 102.262C319.408 82.0428 266.883 80.2513 219.031 97.2499C171.178 114.248 131.566 148.769 108.201 193.836C84.8353 238.903 79.4583 291.155 93.1565 340.032C106.855 388.908 138.607 430.765 181.996 457.143C225.384 483.521 277.174 492.453 326.898 482.133C376.623 471.814 420.573 443.013 449.868 401.55L451.433 402.655Z" fill="#D9D9D9"/>
<path d="M452.468 400.032C452.294 399.508 451.727 399.225 451.203 399.4L442.663 402.247C442.139 402.421 441.856 402.988 442.031 403.511C442.205 404.035 442.772 404.318 443.296 404.144L450.887 401.613L453.416 409.201C453.591 409.725 454.157 410.008 454.681 409.833C455.205 409.659 455.489 409.092 455.314 408.568L452.468 400.032ZM451.415 402.793L452.414 400.795L450.625 399.901L449.626 401.899L451.415 402.793Z" fill="#D9D9D9"/>
<path d="M536.016 131.005C535.874 131.539 536.19 132.087 536.724 132.23L545.419 134.56C545.953 134.703 546.501 134.386 546.644 133.853C546.787 133.32 546.47 132.771 545.937 132.628L538.208 130.557L540.278 122.832C540.421 122.298 540.104 121.75 539.57 121.607C539.037 121.464 538.488 121.781 538.345 122.314L536.016 131.005ZM538.418 129.281L536.482 130.398L537.483 132.13L539.418 131.013L538.418 129.281Z" fill="#D9D9D9"/>
</svg>
